<?xml version="1.0" encoding="UTF-8"?><svg id="_層_1" xmlns="http://www.w3.org/2000/svg" viewBox="0 0 500 500"><defs><style>.cls-1{font-family:Calibri-Light, Calibri;font-size:25px;}</style></defs><text class="cls-1" transform="translate(116.35 66.95) rotate(-34.2)"><tspan x="0" y="0">G</tspan></text><text class="cls-1" transform="translate(133.38 55.74) rotate(-29.94)"><tspan x="0" y="0">r</tspan></text><text class="cls-1" transform="translate(144.58 49.39) rotate(-26.28)"><tspan x="0" y="0">a</tspan></text><text class="cls-1" transform="translate(159.4 42.24) rotate(-21.94)"><tspan x="0" y="0">p</tspan></text><text class="cls-1" transform="translate(175.87 35.81) rotate(-17.43)"><tspan x="0" y="0">h</tspan></text><text class="cls-1" transform="translate(192.88 30.75) rotate(-13.86)"><tspan x="0" y="0">i</tspan></text><text class="cls-1" transform="translate(202.9 28.34) rotate(-10.59)"><tspan x="0" y="0">c</tspan></text><text class="cls-1" transform="translate(218.06 25.72) rotate(-7.32)"><tspan x="0" y="0"> </tspan></text><text class="cls-1" transform="translate(228.38 24.39) rotate(-3.5)"><tspan x="0" y="0">D</tspan></text><text class="cls-1" transform="translate(248.19 23.42) rotate(1.08)"><tspan x="0" y="0">e</tspan></text><text class="cls-1" transform="translate(265.26 23.95) rotate(5.02)"><tspan x="0" y="0">s</tspan></text><text class="cls-1" transform="translate(279.65 25.41) rotate(8.15)"><tspan x="0" y="0">i</tspan></text><text class="cls-1" transform="translate(289.82 26.91) rotate(11.54)"><tspan x="0" y="0">g</tspan></text><text class="cls-1" transform="translate(305.89 30.35) rotate(15.89)"><tspan x="0" y="0">n</tspan></text><text class="cls-1" transform="translate(322.85 35.45) rotate(19.47)"><tspan x="0" y="0"> </tspan></text><text class="cls-1" transform="translate(332.68 39.04) rotate(22.14)"><tspan x="0" y="0"> </tspan></text><text class="cls-1" transform="translate(342.31 42.95) rotate(26.05)"><tspan x="0" y="0">G</tspan></text><text class="cls-1" transform="translate(360.48 52.18) rotate(30.33)"><tspan x="0" y="0">r</tspan></text><text class="cls-1" transform="translate(371.55 58.75) rotate(33.98)"><tspan x="0" y="0">a</tspan></text><text class="cls-1" transform="translate(385.12 68.09) rotate(38.29)"><tspan x="0" y="0">p</tspan></text><text class="cls-1" transform="translate(398.9 79.2) rotate(42.74)"><tspan x="0" y="0">h</tspan></text><text class="cls-1" transform="translate(411.76 91.43) rotate(46.26)"><tspan x="0" y="0">i</tspan></text><text class="cls-1" transform="translate(418.81 98.89) rotate(49.48)"><tspan x="0" y="0">c</tspan></text><text class="cls-1" transform="translate(428.66 110.74) rotate(52.74)"><tspan x="0" y="0"> </tspan></text><text class="cls-1" transform="translate(434.96 119.02) rotate(56.56)"><tspan x="0" y="0">D</tspan></text><text class="cls-1" transform="translate(445.7 135.72) rotate(61.23)"><tspan x="0" y="0">e</tspan></text><text class="cls-1" transform="translate(453.72 150.78) rotate(65.22)"><tspan x="0" y="0">s</tspan></text><text class="cls-1" transform="translate(459.61 163.98) rotate(68.37)"><tspan x="0" y="0">i</tspan></text><text class="cls-1" transform="translate(463.36 173.56) rotate(71.78)"><tspan x="0" y="0">g</tspan></text><text class="cls-1" transform="translate(468.34 189.19) rotate(76.12)"><tspan x="0" y="0">n</tspan></text><text class="cls-1" transform="translate(472.34 206.47) rotate(79.7)"><tspan x="0" y="0"> </tspan></text><text class="cls-1" transform="translate(474.1 216.78) rotate(82.36)"><tspan x="0" y="0"> </tspan></text><text class="cls-1" transform="translate(475.49 227.09) rotate(86.24)"><tspan x="0" y="0">G</tspan></text><text class="cls-1" transform="translate(476.56 247.41) rotate(90.93)"><tspan x="0" y="0">r</tspan></text><text class="cls-1" transform="translate(476.34 260.32) rotate(94.04)"><tspan x="0" y="0">a</tspan></text><text class="cls-1" transform="translate(475.03 276.75) rotate(98.35)"><tspan x="0" y="0">p</tspan></text><text class="cls-1" transform="translate(472.29 294.2) rotate(102.84)"><tspan x="0" y="0">h</tspan></text><text class="cls-1" transform="translate(468.09 311.44) rotate(106.41)"><tspan x="0" y="0">i</tspan></text><text class="cls-1" transform="translate(465.12 321.28) rotate(109.68)"><tspan x="0" y="0">c</tspan></text><text class="cls-1" transform="translate(459.74 335.72) rotate(112.97)"><tspan x="0" y="0"> </tspan></text><text class="cls-1" transform="translate(455.69 345.27) rotate(116.82)"><tspan x="0" y="0">D</tspan></text><text class="cls-1" transform="translate(446.5 362.89) rotate(121.49)"><tspan x="0" y="0">e</tspan></text><text class="cls-1" transform="translate(437.41 377.34) rotate(125.47)"><tspan x="0" y="0">s</tspan></text><text class="cls-1" transform="translate(428.87 389) rotate(128.59)"><tspan x="0" y="0">i</tspan></text><text class="cls-1" transform="translate(422.42 397.01) rotate(131.95)"><tspan x="0" y="0">g</tspan></text><text class="cls-1" transform="translate(411.33 409.11) rotate(136.24)"><tspan x="0" y="0">n</tspan></text><text class="cls-1" transform="translate(398.34 421.2) rotate(139.78)"><tspan x="0" y="0"> </tspan></text><text class="cls-1" transform="translate(390.27 427.88) rotate(142.42)"><tspan x="0" y="0"> </tspan></text><text class="cls-1" transform="translate(382.05 434.21) rotate(146.3)"><tspan x="0" y="0">G</tspan></text><text class="cls-1" transform="translate(364.92 445.27) rotate(150.56)"><tspan x="0" y="0">r</tspan></text><text class="cls-1" transform="translate(353.65 451.53) rotate(154.23)"><tspan x="0" y="0">a</tspan></text><text class="cls-1" transform="translate(338.78 458.54) rotate(158.57)"><tspan x="0" y="0">p</tspan></text><text class="cls-1" transform="translate(322.24 464.84) rotate(163.08)"><tspan x="0" y="0">h</tspan></text><text class="cls-1" transform="translate(305.21 469.74) rotate(166.64)"><tspan x="0" y="0">i</tspan></text><text class="cls-1" transform="translate(295.18 472.06) rotate(169.91)"><tspan x="0" y="0">c</tspan></text><text class="cls-1" transform="translate(279.97 474.55) rotate(173.18)"><tspan x="0" y="0"> </tspan></text><text class="cls-1" transform="translate(269.66 475.79) rotate(176.99)"><tspan x="0" y="0">D</tspan></text><text class="cls-1" transform="translate(249.83 476.58) rotate(-178.42)"><tspan x="0" y="0">e</tspan></text><text class="cls-1" transform="translate(232.75 475.9) rotate(-174.48)"><tspan x="0" y="0">s</tspan></text><text class="cls-1" transform="translate(218.39 474.33) rotate(-171.35)"><tspan x="0" y="0">i</tspan></text><text class="cls-1" transform="translate(208.23 472.73) rotate(-167.95)"><tspan x="0" y="0">g</tspan></text><text class="cls-1" transform="translate(192.21 469.16) rotate(-163.61)"><tspan x="0" y="0">n</tspan></text><text class="cls-1" transform="translate(175.27 463.9) rotate(-160.02)"><tspan x="0" y="0"> </tspan></text><text class="cls-1" transform="translate(165.48 460.22) rotate(-157.36)"><tspan x="0" y="0"> </tspan></text><text class="cls-1" transform="translate(155.89 456.23) rotate(-153.44)"><tspan x="0" y="0">G</tspan></text><text class="cls-1" transform="translate(137.79 446.84) rotate(-149.17)"><tspan x="0" y="0">r</tspan></text><text class="cls-1" transform="translate(126.77 440.17) rotate(-145.52)"><tspan x="0" y="0">a</tspan></text><text class="cls-1" transform="translate(113.29 430.72) rotate(-141.22)"><tspan x="0" y="0">p</tspan></text><text class="cls-1" transform="translate(99.62 419.5) rotate(-136.77)"><tspan x="0" y="0">h</tspan></text><text class="cls-1" transform="translate(86.88 407.17) rotate(-133.25)"><tspan x="0" y="0">i</tspan></text><text class="cls-1" transform="translate(79.86 399.62) rotate(-130.01)"><tspan x="0" y="0">c</tspan></text><text class="cls-1" transform="translate(70.11 387.68) rotate(-126.76)"><tspan x="0" y="0"> </tspan></text><text class="cls-1" transform="translate(63.91 379.38) rotate(-122.94)"><tspan x="0" y="0">D</tspan></text><text class="cls-1" transform="translate(53.31 362.57) rotate(-118.27)"><tspan x="0" y="0">e</tspan></text><text class="cls-1" transform="translate(45.42 347.44) rotate(-114.28)"><tspan x="0" y="0">s</tspan></text><text class="cls-1" transform="translate(39.65 334.2) rotate(-111.13)"><tspan x="0" y="0">i</tspan></text><text class="cls-1" transform="translate(35.99 324.59) rotate(-107.72)"><tspan x="0" y="0">g</tspan></text><text class="cls-1" transform="translate(31.14 308.9) rotate(-103.37)"><tspan x="0" y="0">n</tspan></text><text class="cls-1" transform="translate(27.29 291.57) rotate(-99.79)"><tspan x="0" y="0"> </tspan></text><text class="cls-1" transform="translate(25.62 281.25) rotate(-97.14)"><tspan x="0" y="0"> </tspan></text><text class="cls-1" transform="translate(24.32 270.93) rotate(-93.26)"><tspan x="0" y="0">G</tspan></text><text class="cls-1" transform="translate(23.46 250.58) rotate(-89.07)"><tspan x="0" y="0">r</tspan></text><text class="cls-1" transform="translate(23.75 237.7) rotate(-85.46)"><tspan x="0" y="0">a</tspan></text><text class="cls-1" transform="translate(25.21 221.29) rotate(-81.15)"><tspan x="0" y="0">p</tspan></text><text class="cls-1" transform="translate(28.11 203.84) rotate(-76.65)"><tspan x="0" y="0">h</tspan></text><text class="cls-1" transform="translate(32.46 186.66) rotate(-73.09)"><tspan x="0" y="0">i</tspan></text><text class="cls-1" transform="translate(35.51 176.83) rotate(-69.81)"><tspan x="0" y="0">c</tspan></text><text class="cls-1" transform="translate(41.02 162.45) rotate(-66.53)"><tspan x="0" y="0"> </tspan></text><text class="cls-1" transform="translate(45.16 152.92) rotate(-62.68)"><tspan x="0" y="0">D</tspan></text><text class="cls-1" transform="translate(54.5 135.39) rotate(-58)"><tspan x="0" y="0">e</tspan></text><text class="cls-1" transform="translate(63.72 121.03) rotate(-54.03)"><tspan x="0" y="0">s</tspan></text><text class="cls-1" transform="translate(72.35 109.45) rotate(-50.92)"><tspan x="0" y="0">i</tspan></text><text class="cls-1" transform="translate(78.87 101.5) rotate(-47.55)"><tspan x="0" y="0">g</tspan></text><text class="cls-1" transform="translate(90.08 89.47) rotate(-43.26)"><tspan x="0" y="0">n</tspan></text><text class="cls-1" transform="translate(103.16 77.52) rotate(-39.72)"><tspan x="0" y="0"> </tspan></text><text class="cls-1" transform="translate(111.29 70.9) rotate(-37.09)"><tspan x="0" y="0"> </tspan></text></svg>